<?xml version="1.0" standalone="no"?>
<!DOCTYPE svg PUBLIC "-//W3C//DTD SVG 20010904//EN"
 "http://www.w3.org/TR/2001/REC-SVG-20010904/DTD/svg10.dtd">
<svg version="1.0" xmlns="http://www.w3.org/2000/svg"
 width="512.000000pt" height="512.000000pt" viewBox="0 0 512.000000 512.000000"
 preserveAspectRatio="xMidYMid meet">
<metadata>
Created by potrace 1.14, written by Peter Selinger 2001-2017
</metadata>
<g transform="translate(0.000000,512.000000) scale(0.100000,-0.100000)"
fill="#000000" stroke="none">
<path d="M4435 5015 c-191 -234 -447 -371 -1055 -565 -542 -173 -611 -198
-873 -314 -471 -209 -844 -506 -1119 -891 -249 -349 -356 -626 -364 -940 -7
-306 82 -560 287 -810 200 -245 487 -428 724 -461 22 -4 41 -7 42 -8 2 -2
-208 -142 -302 -202 -158 -100 -421 -240 -595 -317 -60 -26 -218 -76 -288 -91
-91 -20 -123 -24 -222 -31 -159 -11 -210 -29 -243 -84 -68 -116 30 -263 183
-274 131 -10 434 123 850 371 191 114 601 382 630 412 3 3 41 32 85 65 44 33
87 67 96 75 9 8 25 22 35 30 267 217 598 555 871 890 162 199 371 500 528 762
105 175 261 478 347 673 77 177 83 184 42 46 -64 -216 -160 -495 -205 -596 -4
-11 -24 -58 -43 -105 -66 -162 -234 -508 -296 -610 -15 -25 -59 -99 -98 -165
-84 -144 -194 -309 -305 -460 -45 -60 -84 -112 -87 -115 -3 -3 -34 -41 -69
-85 -35 -44 -69 -85 -75 -90 -6 -6 -36 -39 -65 -75 -30 -36 -129 -138 -219
-228 l-163 -162 45 -59 c126 -163 347 -296 586 -351 227 -53 367 -55 550 -9
389 98 732 408 956 864 162 332 262 741 291 1200 13 203 7 640 -11 815 -2 19
-7 67 -11 105 -3 39 -8 81 -10 95 -2 14 -6 50 -10 80 -3 30 -8 69 -10 85 -3
17 -7 48 -10 70 -3 22 -10 63 -15 90 -5 28 -12 73 -16 100 -4 28 -8 55 -9 60
-2 6 -12 62 -25 125 -40 211 -106 492 -169 720 -76 277 -116 410 -122 410 -4
0 -23 -20 -44 -45z"/>
</g>
</svg>
